#N canvas 524 31 1198 803 10;
#X declare -lib mrpeach;
#X msg 802 487 disconnect;
#X obj 108 -60 loadbang;
#X msg 108 -26 \; pd dsp 1;
#X msg 257 211 connecturl http://locus.creacast.com:9001/aix_provence_st_jerome.ogg
;
#X msg 560 282 connecturl http://locus.creacast.com:9001/Heathrow_Planes1.ogg
;
#X msg 567 346 disconnect;
#X msg 266 273 disconnect;
#X obj 137 54 bng 15 250 50 0 empty empty empty 17 7 0 10 -262144 -1
-1;
#X obj 283 55 bng 15 250 50 0 empty empty empty 17 7 0 10 -262144 -1
-1;
#X obj 445 59 bng 15 250 50 0 empty empty empty 17 7 0 10 -262144 -1
-1;
#X obj 126 88 t b b b;
#X obj 146 128 s cut2;
#X obj 194 129 s cut3;
#X obj 98 127 s con1;
#X obj 283 90 t b b b;
#X obj 255 129 s con2;
#X obj 303 130 s cut1;
#X obj 445 90 t b b b;
#X obj 465 130 s cut1;
#X obj 513 131 s cut2;
#X obj 417 127 s con3;
#X text 439 20 weatherreport_test.ogg;
#X text 267 20 Heathrow_Planes1.ogg;
#X text 83 24 aix_provence_st_jerome.ogg;
#X obj 351 131 s cut3;
#X obj 651 53 bng 15 250 50 0 empty empty empty 17 7 0 10 -262144 -1
-1;
#X obj 641 99 t b b b;
#X obj 636 132 s cut1;
#X obj 684 133 s cut2;
#X obj 739 131 s cut3;
#X text 650 24 killall stream;
#N canvas 322 283 371 367 oscRecv 0;
#X obj 46 -25 import mrpeach;
#X obj 40 65 unpackOSC;
#X obj 115 67 print UDP;
#X obj 40 27 udpreceive 9000;
#X obj 54 191 print number;
#X obj 40 103 route /rssi;
#X obj 162 165 route -1;
#X obj 206 208 print button;
#X obj 28 248 outlet;
#X obj 147 252 outlet;
#X connect 1 0 5 0;
#X connect 3 0 1 0;
#X connect 5 0 6 0;
#X connect 5 0 8 0;
#X connect 6 0 9 0;
#X restore 898 6 pd oscRecv;
#X obj 896 37 print 1;
#X obj 958 38 print 2;
#N canvas 842 459 538 431 synth 0;
#X obj 230 270 *~;
#X obj 244 242 line~;
#X text 315 181 on;
#X text 312 210 off;
#X text 281 235 envelope;
#X text 281 248 generator;
#X text 228 161 amplitude controls:;
#X text 90 179 change frequency;
#X text 92 167 incoming numbers;
#X obj 66 202 osc~ 1000;
#X obj 230 339 dac~;
#X obj 60 129 inlet freq;
#X obj 425 122 inlet amp;
#X msg 244 186 0.1 1;
#X msg 263 211 0 1;
#X obj 243 23 inlet onoff;
#X obj 242 76 route 1 0;
#X connect 0 0 10 0;
#X connect 0 0 10 1;
#X connect 1 0 0 1;
#X connect 9 0 0 0;
#X connect 11 0 9 0;
#X connect 12 0 1 0;
#X connect 13 0 1 0;
#X connect 14 0 1 0;
#X connect 15 0 16 0;
#X connect 16 0 13 0;
#X connect 16 1 14 0;
#X restore 1101 -46 pd synth;
#X obj 32 683 dac~;
#X obj 234 424 *~ 0;
#X obj 276 426 *~ 0;
#X floatatom 219 216 5 0 200 0 - - -;
#X obj 241 389 / 100;
#X obj 295 523 *~ 0;
#X obj 337 525 *~ 0;
#X floatatom 526 289 5 0 200 0 - - -;
#X obj 302 488 / 100;
#X obj 382 570 *~ 0;
#X obj 424 572 *~ 0;
#X floatatom 747 433 5 0 200 0 - - -;
#X obj 389 535 / 100;
#X obj 559 368 oggamp~ 1 2 128;
#X msg 787 425 connecturl http://jjwc.cafe24.com:8000/birdnest.ogg
;
#X obj 788 512 oggamp~ 1 2 512;
#X msg 769 357 disconnect;
#X obj 755 382 oggamp~ 1 2 512;
#X obj 579 453 *~ 0;
#X obj 621 455 *~ 0;
#X obj 586 418 / 100;
#X floatatom 718 338 5 0 200 0 - - -;
#X msg 765 323 connecturl http://jjwc.cafe24.com:8000/giy_test;
#X obj 260 320 oggamp~ 1 2 256;
#X connect 0 0 50 0;
#X connect 1 0 2 0;
#X connect 3 0 58 0;
#X connect 4 0 48 0;
#X connect 5 0 48 0;
#X connect 6 0 58 0;
#X connect 7 0 10 0;
#X connect 8 0 14 0;
#X connect 9 0 17 0;
#X connect 10 0 13 0;
#X connect 10 1 11 0;
#X connect 10 2 12 0;
#X connect 14 0 15 0;
#X connect 14 1 16 0;
#X connect 14 2 24 0;
#X connect 17 0 20 0;
#X connect 17 1 18 0;
#X connect 17 2 19 0;
#X connect 25 0 26 0;
#X connect 26 0 27 0;
#X connect 26 1 28 0;
#X connect 26 2 29 0;
#X connect 31 0 32 0;
#X connect 31 1 33 0;
#X connect 36 0 35 0;
#X connect 37 0 35 1;
#X connect 38 0 39 0;
#X connect 39 0 36 1;
#X connect 39 0 37 1;
#X connect 40 0 35 0;
#X connect 41 0 35 1;
#X connect 42 0 43 0;
#X connect 43 0 40 1;
#X connect 43 0 41 1;
#X connect 44 0 35 0;
#X connect 45 0 35 1;
#X connect 46 0 47 0;
#X connect 47 0 44 1;
#X connect 47 0 45 1;
#X connect 48 0 40 0;
#X connect 48 1 41 0;
#X connect 49 0 50 0;
#X connect 50 0 44 0;
#X connect 50 1 45 0;
#X connect 51 0 52 0;
#X connect 52 0 53 0;
#X connect 52 1 54 0;
#X connect 53 0 35 0;
#X connect 54 0 35 1;
#X connect 55 0 53 1;
#X connect 55 0 54 1;
#X connect 56 0 55 0;
#X connect 57 0 52 0;
#X connect 58 0 36 0;
#X connect 58 1 37 0;
