#N canvas 198 23 1198 803 10;
#X declare -lib mrpeach;
#X obj 139 602 dac~;
#X msg 289 534 disconnect;
#X obj 108 -60 loadbang;
#X msg 108 -26 \; pd dsp 1;
#X msg 136 197 connecturl http://locus.creacast.com:9001/aix_provence_st_jerome.ogg
;
#X msg 215 331 connecturl http://locus.creacast.com:9001/Heathrow_Planes1.ogg
;
#X obj 214 417 oggamp~;
#X obj 275 559 oggamp~;
#X obj 139 287 oggamp~;
#X msg 222 395 disconnect;
#X msg 145 259 disconnect;
#X msg 274 472 connecturl http://jjwc.cafe24.com:8000/weatherreport_test.ogg
;
#X obj 137 54 bng 15 250 50 0 empty empty empty 17 7 0 10 -262144 -1
-1;
#X obj 283 55 bng 15 250 50 0 empty empty empty 17 7 0 10 -262144 -1
-1;
#X obj 445 59 bng 15 250 50 0 empty empty empty 17 7 0 10 -262144 -1
-1;
#X obj 126 88 t b b b;
#X obj 146 128 s cut2;
#X obj 194 129 s cut3;
#X obj 98 127 s con1;
#X obj 136 173 r con1;
#X obj 222 369 r cut2;
#X obj 289 511 r cut3;
#X obj 283 90 t b b b;
#X obj 255 129 s con2;
#X obj 303 130 s cut1;
#X obj 214 304 r con2;
#X obj 275 443 r con3;
#X obj 144 232 r cut1;
#X obj 445 90 t b b b;
#X obj 465 130 s cut1;
#X obj 513 131 s cut2;
#X obj 417 127 s con3;
#X text 439 20 weatherreport_test.ogg;
#X text 267 20 Heathrow_Planes1.ogg;
#X text 83 24 aix_provence_st_jerome.ogg;
#X obj 351 131 s cut3;
#X obj 651 53 bng 15 250 50 0 empty empty empty 17 7 0 10 -262144 -1
-1;
#X obj 641 99 t b b b;
#X obj 636 132 s cut1;
#X obj 684 133 s cut2;
#X obj 739 131 s cut3;
#X text 650 24 killall stream;
#N canvas 322 283 371 367 oscRecv 0;
#X obj 46 -25 import mrpeach;
#X obj 40 65 unpackOSC;
#X obj 115 67 print UDP;
#X obj 40 27 udpreceive 9000;
#X obj 54 191 print number;
#X obj 40 103 route /rssi;
#X obj 162 165 route -1;
#X obj 206 208 print button;
#X obj 28 248 outlet;
#X obj 147 252 outlet;
#X connect 1 0 5 0;
#X connect 3 0 1 0;
#X connect 5 0 6 0;
#X connect 5 0 8 0;
#X connect 6 0 9 0;
#X restore 898 6 pd oscRecv;
#X obj 896 37 print 1;
#X obj 958 38 print 2;
#N canvas 842 459 538 431 synth 1;
#X obj 230 270 *~;
#X obj 244 242 line~;
#X text 315 181 on;
#X text 312 210 off;
#X text 281 235 envelope;
#X text 281 248 generator;
#X text 228 161 amplitude controls:;
#X text 90 179 change frequency;
#X text 92 167 incoming numbers;
#X obj 66 202 osc~ 1000;
#X obj 230 339 dac~;
#X obj 60 129 inlet freq;
#X obj 425 122 inlet amp;
#X msg 244 186 0.1 1;
#X msg 263 211 0 1;
#X obj 243 23 inlet onoff;
#X obj 242 76 route 1 0;
#X connect 0 0 10 0;
#X connect 0 0 10 1;
#X connect 1 0 0 1;
#X connect 9 0 0 0;
#X connect 11 0 9 0;
#X connect 12 0 1 0;
#X connect 13 0 1 0;
#X connect 14 0 1 0;
#X connect 15 0 16 0;
#X connect 16 0 13 0;
#X connect 16 1 14 0;
#X restore 1101 -46 pd synth;
#X connect 1 0 7 0;
#X connect 2 0 3 0;
#X connect 4 0 8 0;
#X connect 5 0 6 0;
#X connect 6 0 0 0;
#X connect 6 1 0 1;
#X connect 7 0 0 0;
#X connect 7 1 0 1;
#X connect 8 0 0 0;
#X connect 8 1 0 1;
#X connect 9 0 6 0;
#X connect 10 0 8 0;
#X connect 11 0 7 0;
#X connect 12 0 15 0;
#X connect 13 0 22 0;
#X connect 14 0 28 0;
#X connect 15 0 18 0;
#X connect 15 1 16 0;
#X connect 15 2 17 0;
#X connect 19 0 4 0;
#X connect 20 0 9 0;
#X connect 21 0 1 0;
#X connect 22 0 23 0;
#X connect 22 1 24 0;
#X connect 22 2 35 0;
#X connect 25 0 5 0;
#X connect 26 0 11 0;
#X connect 27 0 10 0;
#X connect 28 0 31 0;
#X connect 28 1 29 0;
#X connect 28 2 30 0;
#X connect 36 0 37 0;
#X connect 37 0 38 0;
#X connect 37 1 39 0;
#X connect 37 2 40 0;
#X connect 42 0 43 0;
#X connect 42 1 44 0;
